<mxfile host="app.diagrams.net" agent="Mozilla/5.0 (Windows NT 10.0; Win64; x64) AppleWebKit/537.36 (KHTML, like Gecko) Chrome/132.0.0.0 Safari/537.36 Edg/132.0.0.0" version="26.0.16">
  <diagram id="C5RBs43oDa-KdzZeNtuy" name="Page-1">
    <mxGraphModel dx="724" dy="477" grid="1" gridSize="10" guides="1" tooltips="1" connect="1" arrows="1" fold="1" page="1" pageScale="1" pageWidth="827" pageHeight="1169" math="0" shadow="0">
      <root>
        <mxCell id="WIyWlLk6GJQsqaUBKTNV-0" />
        <mxCell id="WIyWlLk6GJQsqaUBKTNV-1" parent="WIyWlLk6GJQsqaUBKTNV-0" />
        <mxCell id="WIyWlLk6GJQsqaUBKTNV-3" value="Patient Dashboard" style="rounded=1;whiteSpace=wrap;html=1;fontSize=12;glass=0;strokeWidth=1;shadow=0;" parent="WIyWlLk6GJQsqaUBKTNV-1" vertex="1">
          <mxGeometry x="120" y="240" width="120" height="40" as="geometry" />
        </mxCell>
        <mxCell id="WIyWlLk6GJQsqaUBKTNV-6" value="If&amp;nbsp;&lt;div&gt;User Logged&amp;nbsp;&lt;/div&gt;&lt;div&gt;In?&lt;/div&gt;" style="rhombus;whiteSpace=wrap;html=1;shadow=0;fontFamily=Helvetica;fontSize=12;align=center;strokeWidth=1;spacing=6;spacingTop=-4;" parent="WIyWlLk6GJQsqaUBKTNV-1" vertex="1">
          <mxGeometry x="350" y="120" width="100" height="80" as="geometry" />
        </mxCell>
        <mxCell id="WIyWlLk6GJQsqaUBKTNV-7" value="SignIn Screen" style="rounded=1;whiteSpace=wrap;html=1;fontSize=12;glass=0;strokeWidth=1;shadow=0;" parent="WIyWlLk6GJQsqaUBKTNV-1" vertex="1">
          <mxGeometry x="370" y="240" width="120" height="40" as="geometry" />
        </mxCell>
        <mxCell id="WIyWlLk6GJQsqaUBKTNV-12" value="Admin Options" style="rounded=1;whiteSpace=wrap;html=1;fontSize=12;glass=0;strokeWidth=1;shadow=0;" parent="WIyWlLk6GJQsqaUBKTNV-1" vertex="1">
          <mxGeometry x="540" y="310" width="120" height="40" as="geometry" />
        </mxCell>
        <mxCell id="dxg4_gWEiXvWOf_cED9y-0" value="Welcome Screen" style="ellipse;whiteSpace=wrap;html=1;" vertex="1" parent="WIyWlLk6GJQsqaUBKTNV-1">
          <mxGeometry x="340" y="20" width="120" height="60" as="geometry" />
        </mxCell>
        <mxCell id="dxg4_gWEiXvWOf_cED9y-2" value="" style="endArrow=none;html=1;rounded=0;entryX=0.5;entryY=1;entryDx=0;entryDy=0;" edge="1" parent="WIyWlLk6GJQsqaUBKTNV-1" source="WIyWlLk6GJQsqaUBKTNV-6" target="dxg4_gWEiXvWOf_cED9y-0">
          <mxGeometry width="50" height="50" relative="1" as="geometry">
            <mxPoint x="355" y="130" as="sourcePoint" />
            <mxPoint x="400" y="90" as="targetPoint" />
          </mxGeometry>
        </mxCell>
        <mxCell id="dxg4_gWEiXvWOf_cED9y-5" value="Book Appointment" style="rounded=1;whiteSpace=wrap;html=1;fontSize=12;glass=0;strokeWidth=1;shadow=0;" vertex="1" parent="WIyWlLk6GJQsqaUBKTNV-1">
          <mxGeometry x="10" y="390" width="110" height="30" as="geometry" />
        </mxCell>
        <mxCell id="dxg4_gWEiXvWOf_cED9y-6" value="Chatbot - DocXpert" style="rounded=1;whiteSpace=wrap;html=1;fontSize=12;glass=0;strokeWidth=1;shadow=0;" vertex="1" parent="WIyWlLk6GJQsqaUBKTNV-1">
          <mxGeometry x="210" y="450" width="110" height="30" as="geometry" />
        </mxCell>
        <mxCell id="dxg4_gWEiXvWOf_cED9y-7" value="View Appointments" style="rounded=1;whiteSpace=wrap;html=1;fontSize=12;glass=0;strokeWidth=1;shadow=0;" vertex="1" parent="WIyWlLk6GJQsqaUBKTNV-1">
          <mxGeometry x="80" y="450" width="110" height="30" as="geometry" />
        </mxCell>
        <mxCell id="dxg4_gWEiXvWOf_cED9y-8" value="Past Sessions&amp;nbsp;" style="rounded=1;whiteSpace=wrap;html=1;fontSize=12;glass=0;strokeWidth=1;shadow=0;" vertex="1" parent="WIyWlLk6GJQsqaUBKTNV-1">
          <mxGeometry x="260" y="390" width="110" height="30" as="geometry" />
        </mxCell>
        <mxCell id="dxg4_gWEiXvWOf_cED9y-9" value="" style="endArrow=classic;html=1;rounded=0;" edge="1" parent="WIyWlLk6GJQsqaUBKTNV-1">
          <mxGeometry width="50" height="50" relative="1" as="geometry">
            <mxPoint x="180" y="360" as="sourcePoint" />
            <mxPoint x="140" y="450" as="targetPoint" />
            <Array as="points">
              <mxPoint x="140" y="360" />
            </Array>
          </mxGeometry>
        </mxCell>
        <mxCell id="dxg4_gWEiXvWOf_cED9y-10" value="" style="endArrow=none;html=1;rounded=0;" edge="1" parent="WIyWlLk6GJQsqaUBKTNV-1">
          <mxGeometry width="50" height="50" relative="1" as="geometry">
            <mxPoint x="180" y="360" as="sourcePoint" />
            <mxPoint x="180" y="280" as="targetPoint" />
          </mxGeometry>
        </mxCell>
        <mxCell id="dxg4_gWEiXvWOf_cED9y-11" value="" style="endArrow=classic;html=1;rounded=0;entryX=0.455;entryY=0;entryDx=0;entryDy=0;entryPerimeter=0;" edge="1" parent="WIyWlLk6GJQsqaUBKTNV-1" target="dxg4_gWEiXvWOf_cED9y-5">
          <mxGeometry width="50" height="50" relative="1" as="geometry">
            <mxPoint x="140" y="360" as="sourcePoint" />
            <mxPoint x="250" y="300" as="targetPoint" />
            <Array as="points">
              <mxPoint x="60" y="360" />
            </Array>
          </mxGeometry>
        </mxCell>
        <mxCell id="dxg4_gWEiXvWOf_cED9y-13" value="" style="endArrow=classic;html=1;rounded=0;" edge="1" parent="WIyWlLk6GJQsqaUBKTNV-1">
          <mxGeometry width="50" height="50" relative="1" as="geometry">
            <mxPoint x="180" y="360" as="sourcePoint" />
            <mxPoint x="240" y="450" as="targetPoint" />
            <Array as="points">
              <mxPoint x="240" y="360" />
            </Array>
          </mxGeometry>
        </mxCell>
        <mxCell id="dxg4_gWEiXvWOf_cED9y-14" value="" style="endArrow=classic;html=1;rounded=0;entryX=0.545;entryY=0;entryDx=0;entryDy=0;entryPerimeter=0;" edge="1" parent="WIyWlLk6GJQsqaUBKTNV-1" target="dxg4_gWEiXvWOf_cED9y-8">
          <mxGeometry width="50" height="50" relative="1" as="geometry">
            <mxPoint x="240" y="360" as="sourcePoint" />
            <mxPoint x="390" y="290" as="targetPoint" />
            <Array as="points">
              <mxPoint x="320" y="360" />
            </Array>
          </mxGeometry>
        </mxCell>
      </root>
    </mxGraphModel>
  </diagram>
</mxfile>
